<?xml version="1.0" encoding="UTF-8"?>
<!DOCTYPE svg PUBLIC "-//W3C//DTD SVG 1.1//EN" "http://www.w3.org/Graphics/SVG/1.1/DTD/svg11.dtd">
<!-- Creator: CorelDRAW -->
<svg xmlns="http://www.w3.org/2000/svg" xml:space="preserve" width="2048px" height="2048px" style="shape-rendering:geometricPrecision; text-rendering:geometricPrecision; image-rendering:optimizeQuality; fill-rule:evenodd; clip-rule:evenodd"
viewBox="0 0 2048 2048"
 xmlns:xlink="http://www.w3.org/1999/xlink">
 <defs>
  <style type="text/css">
   <![CDATA[
    .fil2 {fill:none}
    .fil1 {fill:#424242}
    .fil0 {fill:#212121;fill-rule:nonzero}
   ]]>
  </style>
 </defs>
 <g id="Layer_x0020_1">
  <metadata id="CorelCorpID_0Corel-Layer"/>
  <path class="fil0" d="M1095.57 490.265c-0.0413386,0.0531496 -0.0472441,0.0637796 0.0011811,0.0129921l-0.0011811 -0.0129921z"/>
  <path class="fil0" d="M949.879 488.56c-0.131102,-0.034252 -0.243307,-0.068504 -0.298819,-0.0921261l0 0.0921261 0.298819 0z"/>
  <path class="fil0" d="M966.464 319.937l-0.298819 0 0 0.111024c0.0366142,-0.0200788 0.154725,-0.0637796 0.298819,-0.111024z"/>
  <path class="fil1" d="M904.315 532.226l0 0zm-155.296 563.067l0 0zm549.827 -0.322441c-2.14134,-40.4055 -19.7693,-76.3796 -47.0244,-102.334 -27.5327,-26.2205 -64.9347,-42.2327 -106.116,-42.2457l-23.4 0.0106299 0 -402.996c7.30158,-3.12284 13.8685,-7.50001 19.3099,-12.9413l1.90394 -2.15551 0.0448819 0.0413386c5.71654,-6.26103 10.0264,-13.7539 12.7476,-21.9402 2.66693,-8.01969 3.67677,-16.5496 2.86063,-25.0595l-16.5662 -173.766 -0.0129921 0.0011811c-1.51417,-15.8032 -8.82875,-29.6551 -19.6725,-39.5197 -10.8768,-9.89646 -25.3807,-15.8728 -41.2134,-15.8752l-115.543 -0.00472441 0 -0.125197c-8.04922,0 -15.9331,1.6689 -23.2902,4.7067 -7.49882,3.09213 -14.2441,7.60158 -19.8709,13.1941 -5.00433,4.97126 -9.15591,10.7965 -12.2079,17.2453 -2.92087,6.17245 -4.84607,13.0205 -5.55,20.3528l-16.565 173.818 0 0.125197c-0.796064,8.5382 0.21378,17.0634 2.88189,25.05 2.62559,7.86024 6.92953,15.2504 12.7524,21.6732 5.9126,6.52087 12.9284,11.5819 20.5524,14.9575l0.852757 0.369685 -0.00472441 402.841 -23.5477 0.00236221c-20.648,0.00944883 -40.6075,4.00512 -58.9855,11.6232 -18.5339,7.68426 -35.4827,18.9425 -49.95,33.4099 -13.3382,13.3358 -23.9752,28.9441 -31.5355,45.9922 -7.42205,16.7374 -11.7709,34.963 -12.6898,53.8701 -0.0625985,1.20354 -0.129921,3.2941 -0.197244,6.08504 -0.126378,5.2252 -0.187795,4.89449 -0.187795,6.00237 0,12.352 0.930709,24.7973 2.78386,37.2449 1.77992,11.9669 4.55197,24.1311 8.30434,36.4063 2.48504,8.14134 2.76851,16.6099 1.00866,24.6851 -1.71024,7.84961 -5.47441,15.2976 -11.1319,21.639 -28.7953,32.2949 -50.7815,69.0756 -65.2536,108.438 -14.4461,39.2918 -21.3425,81.2304 -19.9949,123.914 1.33937,42.3981 10.9394,82.8709 27.2776,120.031 16.8886,38.4095 41.0256,73.4138 70.7127,103.447 33.5729,33.9638 74.1839,61.5154 119.366,80.3741 43.337,18.0898 91.1103,28.2201 141.151,28.376 49.2756,0.153543 97.6489,-9.4004 142.071,-27.4264 44.7532,-18.1595 85.656,-44.8536 119.64,-78.8375 31.9359,-31.9359 56.7284,-68.8997 73.5603,-108.946 16.8673,-40.1351 25.7103,-83.3056 25.7103,-127.563l-0.125197 0c0.00944883,-40.6914 -7.59568,-80.7485 -22.1126,-118.349 -14.5382,-37.6559 -35.8949,-72.7855 -63.3603,-103.563l-0.125197 0c-5.75788,-6.4441 -9.62127,-13.891 -11.4284,-21.6461 -1.68425,-7.22835 -1.46102,-14.7626 0.819686,-21.952 4.30276,-13.6063 7.45394,-27.7937 9.42875,-42.4524 1.92166,-14.2606 2.61614,-28.7362 2.06693,-43.3181l-0.0330709 -1.29567 0 -0.250394 -0.112205 -1.36536zm-63.639 4.86615l0.011811 -0.5563 0.0188977 0.0874016 0 0.411024 -0.0307087 0.0578741zm0.0307087 -0.760631l0 -0.758268 -0.0153543 0.758268 0.0153543 0zm-122.372 87.3981c11.7248,11.7236 20.9079,25.6016 27.2374,40.8886 6.28937,15.1902 9.5882,31.4445 9.5882,48.0225 0,16.5803 -3.29882,32.8382 -9.59174,48.0307 -6.33308,15.2894 -15.5209,29.1721 -27.2528,40.904l-0.125197 0c-11.7862,11.7827 -25.6193,20.9634 -40.7634,27.2339 -15.189,6.28819 -31.441,9.58583 -48.0201,9.58583 -16.5791,0 -32.8335,-3.29882 -48.0213,-9.5882 -15.287,-6.32953 -29.1662,-15.5126 -40.891,-27.2374 -11.7319,-11.7319 -20.9185,-25.6122 -27.2504,-40.8992 -6.29292,-15.1937 -9.58938,-31.4469 -9.58938,-48.0272l0.125197 0c0.0011811,-16.7799 3.25512,-33.0307 9.46182,-48.0225 6.32835,-15.2835 15.5102,-29.1614 27.2339,-40.8851 11.7331,-11.7331 25.6146,-20.9197 40.9051,-27.2551 15.1914,-6.2941 31.4469,-9.59174 48.0272,-9.59174 16.5815,0 32.8347,3.29646 48.026,9.59056 15.287,6.33189 29.1673,15.5173 40.9004,27.2504zm34.8036 315.787c16.1811,-0.00590552 29.2937,13.1055 29.2878,29.2878 0,8.0882 -3.27402,15.4087 -8.57717,20.713 -5.29725,5.29725 -12.6236,8.57481 -20.7106,8.57481l-247.459 0c-16.1882,0 -29.2949,-13.1067 -29.2925,-29.2925 -0.00236221,-16.1776 13.1043,-29.2831 29.2878,-29.2878l247.464 0.00472441zm-181.206 -1182.32l-0.298819 0.111024 0 -0.111024 0.298819 0z"/>
 </g>
 <rect class="fil2" width="2048" height="2048"/>
</svg>
